<?xml version="1.0" encoding="UTF-8"?>
<svg xmlns="http://www.w3.org/2000/svg" id="a" width="865.76" height="682.89" viewBox="0 0 865.76 682.89">
  <path d="M407.63,53.98s5.85,14.92,6.91,27.59c.22,2.47,2.41,4.29,4.88,4.07,.42-.04,.83-.13,1.22-.29l2-.76,1.24-37.77-16.25,7.16Z"></path>
  <path d="M438.34,78.21c17.74,0,32.12-14.97,32.12-33.44s-14.38-33.44-32.12-33.44-32.12,14.97-32.12,33.44,14.38,33.44,32.12,33.44Z"></path>
  <path d="M446.15,641.97s-14.57,21.75-2.62,26.51c0,0,28.41,9,35.55-7.14,0,0,2.72-4.21,2-14.07-.05-.62-.36-1.88,0-2.39,.7-1,1.36-3.86,1.06-6.86-.66-3.92-2.12-7.67-4.3-11l-18.72,5-12.97,9.95Z" fill="#ad7177"></path>
  <path d="M460.06,671.56c-5.65-.1-11.27-.97-16.68-2.6-2.22-.79-3.94-2.6-4.62-4.86-2.51-8.14,6.59-21.84,7-22.41l.11-.12,13.14-10,19.08-5.13,.2,.32c2.21,3.4,3.7,7.21,4.37,11.21,.3,3.06-.35,6.06-1.16,7.2-.11,.5-.11,1.01,0,1.51,0,.21,0,.4,.07,.55,.73,9.92-1.95,14.21-2.07,14.39-3.47,7.86-11.71,9.94-19.44,9.94Zm-13.54-29.25c-.69,1.06-9.09,14.09-6.81,21.49,.59,1.96,2.07,3.52,4,4.22,.25,.08,28,8.7,34.91-6.88,.07-.11,2.65-4.29,1.95-13.83,0-.14,0-.31-.06-.5-.21-.74-.15-1.52,.16-2.22,.6-.84,1.27-3.57,1-6.52-.63-3.72-1.98-7.28-4-10.47l-18.27,4.91-12.88,9.8Z"></path>
  <path d="M414.88,452.19c2.65,16.92,6.81,33.56,12.44,49.73,4.46,24.06,5.9,48.58,4.27,73,0,0-1.94,22.15-3.89,30.31,0,0,8.55,9.32,17.49,11.65,0,0,2.33,5,5,10.1,0,0,8.16-14.76,27.58,0,5.51-9.83,8.2-20.99,7.77-32.25,0,0,0-17.87,3.5-33,0,0,7.38-40.79,4.66-69.93l-1.82-24.85s3.11-12.82,4.66-21.37l-80.42,.39-1.24,6.22Z" fill="#231f20"></path>
  <path d="M445.21,617.42c-.28-.01-.49-.24-.48-.52l2.72-62.94c4.22-52.19-4.29-100.56-4.37-101.05-.05-.27,.13-.53,.4-.58,.27-.04,.53,.14,.58,.41,.09,.48,8.62,49,4.39,101.28l-2.72,62.92c-.01,.28-.24,.49-.52,.48Z" fill="#fff"></path>
  <path d="M418.37,101.44s-20.29,13.08-30.49,18.41c-1.15,.6-2.34,1.13-3.54,1.63-2.74,1.16-11.85,6.87-11.85,31.64,0,0-3.24,22.73-6.21,40.38-1.47,8.48-3.87,16.77-7.16,24.72-3.39,8.29-6.27,22.22,4.52,34.7,0,0,16.28,20,25,23.22,0,0-6.61,118-3.68,164.73,.23,3.77,2.77,7.01,6.37,8.15,7.15,2.23,22.15,4.86,52.22,3.81,0,0,28.65,.86,52.53-8.69l-14.33-290.42-15.19-43.85-4.68-2.89-43.51-5.54Z" fill="#ad7177"></path>
  <path d="M430.43,453.57c-21.28,0-33-2.12-39.25-4.07-3.8-1.21-6.46-4.62-6.72-8.6-2.81-44.91,3.26-157.17,3.66-164.43-8.78-3.63-24.17-22.43-24.83-23.24-11.22-13-7.7-27.62-4.61-35.2,3.28-7.92,5.67-16.17,7.14-24.61,2.93-17.45,6.17-40.14,6.2-40.37,0-24.94,9.3-30.82,12.15-32,1.06-.44,2.3-1,3.51-1.62,10-5.25,30.22-18.25,30.42-18.38l.16-.1h.18l43.62,5.56,4.91,3,.06,.17,15.22,44,14.34,290.77-.33,.14c-23.7,9.48-52.44,8.72-52.72,8.72-4.73,.18-9.09,.26-13.11,.26Zm-11.94-351.61c-1.9,1.22-20.74,13.3-30.35,18.33-1.23,.65-2.5,1.2-3.58,1.66-2.68,1.14-11.54,6.77-11.54,31.17,0,.3-3.28,23-6.22,40.47-1.48,8.51-3.89,16.84-7.19,24.82-3.68,9-5.89,22.23,4.44,34.18,.17,.21,16.3,19.91,24.76,23.08l.34,.13v.37c-.06,1.18-6.56,118.54-3.67,164.67,.22,3.56,2.6,6.62,6,7.71,7.38,2.29,22.4,4.81,52.05,3.78,.32,0,28.59,.74,52-8.52l-14.3-290-15.12-43.61-4.43-2.75-43.19-5.49Z"></path>
  <path d="M417.32,68.85s5,10.24,.65,35.49c-.2,1.18,.17,2.38,1,3.25,4.18,4.39,17.57,17.06,28.36,11.66,.49-.26,.95-.55,1.39-.89,4.66-3.46,9.06-7.27,13.16-11.38l-2.64-9.57-24.59-22-12.38-9.24-4.95,2.68Z" fill="#fff"></path>
  <path d="M441.67,121.05c-9.7,0-19.78-9.66-23.07-13.12-.93-.98-1.35-2.34-1.12-3.67,4.31-24.81-.56-35.08-.61-35.19l-.21-.43,5.65-3,12.64,9.43,24.74,22.08,2.75,10-.2,.2c-4.12,4.11-8.54,7.91-13.23,11.37-.46,.36-.95,.67-1.47,.93-1.82,.93-3.83,1.41-5.87,1.4Zm-23.71-52c.91,2.23,4.42,12.8,.51,35.35-.18,1.02,.14,2.06,.85,2.81,3.85,4,17.23,16.84,27.77,11.56,.46-.24,.91-.52,1.32-.84,4.57-3.39,8.89-7.11,12.92-11.12l-2.53-9.09-24.48-21.89-12.1-9-4.26,2.22Z"></path>
  <path d="M467.45,42.15c0-11.53-9.34-20.87-20.87-20.87s-20.87,9.34-20.87,20.87v32.43c0,11.53,9.34,20.87,20.87,20.87s20.87-9.34,20.87-20.87V42.15Z" fill="#fff"></path>
  <path d="M446.58,95.95c-11.8-.01-21.36-9.57-21.37-21.37V42.15c0-11.8,9.57-21.37,21.37-21.37s21.37,9.57,21.37,21.37v32.43c-.02,11.8-9.57,21.35-21.37,21.37Zm0-74.17c-11.25,.01-20.36,9.12-20.37,20.37v32.43c0,11.25,9.12,20.37,20.37,20.37s20.37-9.12,20.37-20.37V42.15c-.02-11.24-9.13-20.35-20.37-20.37Z"></path>
  <path d="M425.88,52.36s3.86,22,17.86,22.12c1.77,0,3.51-.37,5.14-1.06,3.5-1.42,13-4.58,18.16,.59,0,0,4.81,29.66-21.91,26.19,0,0-21.91-2.94-23.52-29.67l.54-16.56,3.73-1.61Z"></path>
  <path d="M452.67,84.04c1.06-.54,2.07-1.19,3-1.93,1.13-.86,2.14-1.87,3-3,.19-.15,.22-.42,.08-.6-.08-.11-.21-.17-.35-.17h-10.7c-.24,0-.43,.19-.43,.43,0,.1,.04,.2,.1,.28l3.59,4.9c.5,.38,1.18,.41,1.71,.09Z" fill="#fff"></path>
  <path d="M451.88,84.72c-.45,0-.9-.16-1.25-.44l-.07-.08-3.6-4.9c-.31-.41-.24-1,.18-1.32,.16-.12,.36-.19,.56-.19h10.7c.4,0,.75,.25,.88,.63,.13,.35,.03,.75-.25,1-.86,1.15-1.87,2.18-3,3.07-.96,.78-2.01,1.45-3.11,2-.32,.16-.68,.24-1.04,.23Zm-.56-1.17c.33,.22,.77,.22,1.1,0,1.06-.53,2.07-1.16,3-1.89,1.08-.84,2.04-1.81,2.87-2.9h-10.41l3.44,4.79Z"></path>
  <path d="M418.47,70.16c3.58-.85,5.62-5.18,4.55-9.66-1.06-4.49-4.83-7.44-8.41-6.59-3.58,.85-5.62,5.18-4.55,9.66,1.06,4.49,4.83,7.44,8.41,6.59Z" fill="#fff"></path>
  <path d="M417.22,70.79c-1.53-.03-3.01-.57-4.2-1.54-1.73-1.41-2.94-3.36-3.44-5.53-1.12-4.75,1.09-9.35,4.93-10.26,3.84-.91,7.88,2.21,9,7,1.13,4.75-1.08,9.36-4.92,10.27-.45,.07-.91,.09-1.37,.06Zm-1.34-16.54c-.38,0-.76,.04-1.13,.13-3.31,.78-5.18,4.85-4.18,9.06,.44,1.96,1.52,3.72,3.08,5,1.31,1.11,3.05,1.55,4.73,1.2,3.3-.79,5.18-4.85,4.18-9.07-.9-3.71-3.75-6.32-6.68-6.32Z"></path>
  <path d="M390.21,215c-.28-.02-.49-.25-.48-.53,.86-16.64-9.48-47.26-9.58-47.57-7.78-19.87-2.24-40.46-2.18-40.66,.07-.27,.35-.42,.61-.35,.26,.07,.42,.35,.35,.61-.06,.21-5.51,20.49,2.15,40.06,.11,.33,10.51,31.13,9.64,48-.03,.26-.26,.45-.52,.44h.01Z"></path>
  <path d="M385.75,210.83c-.09,0-.19-.02-.27-.07-5.72-3.04-12.42-3.66-18.6-1.74-.28,.08-.56-.08-.64-.35-.08-.28,.08-.56,.35-.65,6.47-2.06,13.49-1.4,19.46,1.84,.23,.15,.3,.46,.15,.69-.08,.18-.26,.29-.45,.28Z"></path>
  <path d="M390.21,214.5s.87,8.62-.44,12.53c1.31,2.27,1.67,4.96,1,7.49,0,0-16.6-6.67-17.42,15.63,0,0,.65,23.44,4.07,50.95l5.21,62.84s5.25,33.45,11.75,51.68c1.04,2.86-.04,6.05-2.59,7.7-2.48,1.57-6.38,3.14-12.43,3.78-5.31,1.41-10.1,4.29-13.84,8.31,0,0-18.56,16.58-39.34,5.31-2.8-1.54-4.17-4.81-3.3-7.88,3-10.59,10.44-38.91,18.9-88.43l5.21-38.42s4.56-63.49,17.58-79.77c-.03,0,4.76-14,25.64-11.72Z" fill="#fff"></path>
  <path d="M341.17,445.13c-5.33,0-10.56-1.36-15.23-3.93-3.02-1.66-4.5-5.18-3.57-8.5,2.83-9.93,10.35-38.43,18.89-88.38l5.21-38.4c.18-2.56,4.7-63.64,17.63-79.95,.47-1.21,6-14.17,26.17-12h.4v.41c0,.35,.83,8.47-.39,12.52,1.28,2.35,1.61,5.1,.91,7.68l-.14,.54-.53-.21c-.05,0-6.12-2.39-10.87,.7-3.62,2.35-5.59,7.23-5.86,14.49,0,.2,.69,23.7,4.07,50.87l5.21,62.86c0,.3,5.31,33.57,11.74,51.55,1.1,3.08-.05,6.51-2.79,8.29-3.17,2-7.43,3.31-12.65,3.86-5.17,1.43-9.84,4.26-13.49,8.19-.16,.18-10.7,9.41-24.71,9.41Zm44.54-230.41c-16.48,0-20.52,11.13-20.7,11.64l-.08,.15c-12.78,16-17.43,78.86-17.47,79.49l-5.21,38.45c-8.55,50-16.08,78.56-18.92,88.51-.8,2.87,.48,5.91,3.09,7.34,20.23,10.93,38.58-5.12,38.77-5.29,3.79-4.09,8.67-7.01,14.07-8.42,5.11-.54,9.23-1.79,12.26-3.71,2.34-1.53,3.33-4.47,2.39-7.11-6.47-18.07-11.74-51.44-11.79-51.77l-5.24-62.86c-3.38-27.2-4.06-50.74-4.07-51,.28-7.64,2.41-12.78,6.32-15.32,4.37-2.85,9.57-1.53,11.24-1,.47-2.24,.11-4.56-1-6.56l-.13-.2,.08-.23c1.1-3.29,.6-10.18,.45-11.92-1.44-.1-2.79-.19-4.06-.19Z"></path>
  <path d="M359.01,380.72c-.25,0-.47-.19-.5-.44-4.5-39.7,.61-103.2,2.29-121.72,.26-3.14,.75-6.26,1.45-9.34,2.61-11.3,7.22-18.69,13.68-22,4.37-2.16,9.44-2.41,14-.69,.25,.12,.36,.42,.24,.67-.11,.24-.39,.35-.63,.25-4.31-1.58-9.08-1.34-13.21,.67-6.18,3.13-10.6,10.29-13.15,21.28-.69,3.03-1.17,6.11-1.43,9.21-1.19,13.16-6.9,80.9-2.29,121.51,.04,.27-.14,.52-.41,.56h-.03v.04h-.01Z"></path>
  <path d="M376.26,416.86c-.26,0-.47-.2-.5-.46-.09-1.14-9.09-114.4-7.16-149.84,.01-.27,.24-.48,.51-.47h.02c.27,.02,.48,.26,.47,.53-1.93,35.37,7.07,148.56,7.16,149.7,.02,.28-.18,.52-.46,.54h-.04Z"></path>
  <path d="M390.13,275.52c4.72,0,8.54-8.31,8.54-18.55s-3.82-18.55-8.54-18.55-8.54,8.31-8.54,18.55,3.82,18.55,8.54,18.55Z"></path>
  <path d="M381.78,258.23c2.67,3,6.69,10,6.69,10,2,5.19,14.56,5.86,14.56,5.86,6.87,1,6.2-3.35,6.2-3.35,3.68-2,4.68-8.7,4.68-8.7,10.88-4.52,6.36-10.21,6.36-10.21,2-3.85,.67-6.36,.67-6.36,5.86-1.51,2.18-5.36,2.18-5.36-2.69-4.16-7.12-6.87-12.05-7.36-7.2-2.35-11.22,.67-11.22,.67-4.68,3.68-13.39,6.69-13.39,6.69,0,0-3.28,3.15-4.53,11.41-.23,1.58-.31,3.17-.24,4.76l.09,1.95Z" fill="#fff"></path>
  <path d="M404.93,274.78c-.67,0-1.34-.05-2-.16-.48,0-12.85-.74-15-6.17,0,0-4-7-6.61-9.89l-.12-.13-.09-2.09c-.07-1.62,0-3.25,.25-4.85,1.26-8.34,4.54-11.57,4.68-11.7l.18-.11c.09,0,8.68-3,13.24-6.62,.18-.13,4.3-3.13,11.62-.77,5.07,.5,9.63,3.3,12.38,7.59,0,0,1.63,1.72,1.12,3.5-.31,1.1-1.34,1.92-3.05,2.46,.53,2.02,.26,4.17-.76,6,.79,1.25,1.04,2.77,.69,4.21-.64,2.49-3.06,4.63-7.18,6.39-.23,1.3-1.37,6.6-4.62,8.63,.01,.92-.35,1.81-1,2.46-1.03,.89-2.37,1.34-3.73,1.25Zm-22.66-16.75c2.68,3.08,6.47,9.71,6.64,10,1.9,4.9,14,5.6,14.15,5.61,2.4,.35,4.12,.07,5-.81,.52-.53,.77-1.26,.68-2v-.34l.31-.17c3.42-1.86,4.42-8.27,4.43-8.34v-.28l.26-.1c3.91-1.63,6.27-3.64,6.84-5.81,.32-1.25,.07-2.58-.68-3.63l-.2-.26,.15-.28c1.85-3.54,.72-5.81,.67-5.9l-.29-.56,.61-.16c1.65-.42,2.64-1.08,2.88-1.91,.35-1.23-.93-2.6-.94-2.61-2.62-4.04-6.92-6.69-11.71-7.21h-.14c-6.83-2.22-10.72,.57-10.76,.6-4.45,3.5-12.32,6.34-13.41,6.72-.47,.52-3.21,3.75-4.31,11.06-.23,1.54-.31,3.1-.24,4.66l.06,1.72Z"></path>
  <path d="M409.23,271.28h-.11l-11.71-2.56c-.28-.06-.46-.32-.4-.6,.06-.28,.32-.46,.6-.4l11.72,2.51c.27,.06,.44,.33,.39,.6-.03,.25-.24,.44-.49,.45Z"></path>
  <path d="M411.77,262.65c-3.76-.03-7.51-.45-11.18-1.26-.28-.06-.46-.32-.4-.6,.06-.28,.32-.46,.6-.4,4.29,.99,8.69,1.39,13.09,1.19,.26-.03,.5,.15,.54,.42v.03c.03,.27-.17,.52-.45,.55-.09,0-.86,.07-2.2,.07Z"></path>
  <path d="M409.52,253.04c-2.5,.06-5-.17-7.45-.69-.28-.07-.44-.35-.38-.62,.06-.27,.35-.44,.62-.38,5.7,1.47,17.77,0,17.89,0,.28-.03,.53,.16,.56,.44,.03,.28-.16,.53-.44,.56-3.59,.43-7.2,.66-10.81,.69h.01Z"></path>
  <path d="M420.65,245.47c-2.25-.27-16.88-2.18-16.11-4.65,0,0,5.77-4.29,16.17,4.49,.04,.03,.04,.09,0,.13-.02,.02-.05,.03-.07,.03Z"></path>
  <path d="M474.88,96.88c-1.35-.54-2.88-.25-3.94,.74-6.12,5.68-25.83,27.58-34.15,80,0,0-11.55,82.86-12.87,143,0,0-4.77,63.81-9.06,95.83,0,0-1.36,11.8-2.3,19.89-.51,4.36,2.32,8.41,6.59,9.43,16.85,4,59.58,11.24,100.09-6,4.13-1.74,6.55-6.07,5.85-10.5-3.06-19.1-11.15-70.85-12.56-92.24l-7.38-77.71-4.93-48.77s-.71-15,7.11-41.53l9.38-36.79s4.07-11.42,8.89-13.62c.08-.02,.13-.1,.11-.18,0-.05-.05-.09-.11-.11-1.73-.6-8.76-3.11-13.7-6.42-.53-.37-1.01-.8-1.43-1.29-4.7-5.15-11.48-7.89-18.43-7.45-1,.04-2.01-.14-2.94-.51l-14.22-5.77Z" fill="#fff"></path>
  <path d="M461.88,451.14c-14.4-.02-28.76-1.7-42.78-5-4.54-1.07-7.55-5.37-7-10l2.3-19.89c4.26-31.78,9-95.18,9.06-95.81,1.3-59.4,12.76-142.15,12.88-143,8.36-52.67,28.36-74.75,34.3-80.26,1.21-1.11,2.94-1.44,4.47-.84l14.21,5.67c.87,.35,1.8,.51,2.73,.47,7.11-.39,14.02,2.43,18.83,7.69,.39,.46,.83,.86,1.33,1.2,5,3.33,12.19,5.89,13.58,6.36,.26,.09,.43,.32,.45,.59,.01,.27-.14,.52-.39,.63-3.82,1.75-7.53,10.22-8.63,13.34l-9.34,36.75c-7.7,26.09-7.1,41.23-7.09,41.38l4.93,48.74,7.38,77.71c1.39,21.16,9.24,71.53,12.55,92.21,.72,4.64-1.82,9.18-6.15,11-19.78,8.46-40.08,11.06-57.62,11.06Zm11.68-354c-.82,0-1.62,.31-2.22,.87-5.88,5.46-25.68,27.33-34,79.68-.12,.82-11.57,83.51-12.87,142.88,0,.27-4.82,64.23-9.07,95.89l-2.29,19.87c-.48,4.11,2.19,7.93,6.21,8.89,16.52,3.94,59.33,11.25,99.77-6,3.94-1.65,6.23-5.78,5.55-10-3.31-20.69-11.16-71.11-12.55-92.29l-7.38-77.69-4.94-48.77c0-.18-.62-15.46,7.13-41.72l9.37-36.77c.4-1.17,4-10.77,8.46-13.58-4.59-1.57-8.98-3.66-13.09-6.22-.57-.39-1.08-.85-1.53-1.37-4.6-5.01-11.21-7.69-18-7.28-1.07,.03-2.14-.15-3.14-.54l-14.21-5.67c-.39-.15-.8-.22-1.22-.21l.02,.03Z"></path>
  <path d="M525.63,118.21s2.68,1.05,2.19,17.33l-1.46,17.91s-5.6-20.14-7.85-25.45c0,0,2.49-6.94,7.12-9.79Z"></path>
  <path d="M511.49,116.82s-29.3,61.21-21.92,159.32l3,59.47" fill="#fff"></path>
  <path d="M492.11,335.64l-3-59.47c-7.31-97.11,21.68-158.95,22-159.57l.9,.44c-.29,.61-29.16,62.23-21.87,159.06l3,59.49-1.03,.05Z"></path>
  <path d="M474.81,147.21s-2.17,178,3.9,214l-3.9-214Z" fill="#fff"></path>
  <path d="M478.22,361.31c-6-35.66-3.93-212.33-3.91-214.11h1c0,1.78-2.1,178.36,3.9,213.93l-.99,.18Z"></path>
  <path d="M445.21,616.92l.76,2.14-10.34,3c-19.66,4.1-16-9.51-16-9.51l9.14-6.24s8.82,8.65,16.44,10.61Z" fill="#fff"></path>
  <path d="M429.03,623.31c-3.69,0-6.42-.92-8.15-2.75-3-3.21-1.81-8-1.76-8.15v-.18l9.62-6.58,.3,.28c.08,.09,8.84,8.6,16.24,10.51l.26,.06,1,2.89-10.85,3.13c-2.19,.48-4.42,.75-6.66,.79Zm-9-10.47c-.18,.84-.79,4.55,1.56,7s7.09,3.09,13.92,1.67l9.79-2.83-.49-1.38c-6.91-1.91-14.54-8.88-16.15-10.41l-8.63,5.95Z"></path>
  <path d="M419.6,612.53s-11.17,6.38-20.58,8.5c0,0-29.11,6.31-20.64,11.19,0,0,12,9.45,39.07,6.19l32.07-4.69s3.81-5.66-3.55-14.63l-10.34,3s-19.08,4.63-16.03-9.56Z" fill="#ad7177"></path>
  <path d="M406.38,639.6c-19.14,0-27.89-6.65-28.31-7-1.27-.73-1.87-1.62-1.71-2.6,.72-4.62,20.33-9,22.56-9.48,9.22-2.07,20.33-8.38,20.44-8.44l1-.55-.24,1.09c-.7,3.28-.23,5.75,1.41,7.35,4,3.94,13.91,1.59,14,1.56l10.64-3.06,.21,.25c7.51,9.15,3.74,15,3.57,15.23l-.12,.18-32.29,4.75c-3.7,.46-7.43,.7-11.16,.72Zm12.5-26.12c-2.89,1.57-12,6.28-19.79,8-8.18,1.77-21.32,5.69-21.78,8.65-.09,.54,.34,1.08,1.28,1.62,.18,.13,12.3,9.31,38.76,6.12l31.82-4.68c.55-1,2.71-6-3.42-13.6l-10,2.89c-.45,.11-10.52,2.51-15-1.81-1.66-1.63-2.29-4.06-1.87-7.19Z"></path>
  <path d="M450.26,627.02l-4.11,15c4.53-2.79,9.29-5.18,14.23-7.17,1.58-.57,3.35-.03,4.34,1.33,1.94,2.75,4.22,5.25,6.79,7.44,1.87,1.43,4.54,1.08,5.97-.79,.61-.79,.92-1.77,.88-2.76l-.52-13s-17.21-14.99-27.58-.05Z" fill="#fff"></path>
  <path d="M474.09,644.97c-1.05,0-2.07-.35-2.89-1-2.6-2.21-4.91-4.74-6.88-7.53-.86-1.18-2.4-1.65-3.77-1.16-4.9,1.98-9.63,4.36-14.14,7.12l-1.08,.67,4.55-16.35c2.75-4,6.23-6.23,10.33-6.75,8.93-1.11,17.63,6.34,18,6.65l.17,.15,.52,13.21c.11,2.65-1.96,4.89-4.62,5h-.19Zm-12.44-10.91c1.37,0,2.66,.65,3.47,1.75,1.91,2.72,4.16,5.18,6.69,7.34,1.14,.9,2.71,1.05,4,.37,1.29-.67,2.08-2.04,2-3.5l-.51-12.78c-1.23-1-9.2-7.25-17.05-6.27-3.79,.47-7,2.57-9.58,6.25l-3.76,13.66c4.23-2.55,8.66-4.75,13.25-6.57,.48-.17,.98-.26,1.49-.25Z"></path>
  <path d="M518.51,128c5.22,12.42,19.65,68.2,24,85.36,1.4,5.31,.48,10.97-2.53,15.57-17.47,26.21-88.94,61.6-88.94,61.6-10-15.31-15-33-15-33,0,0,42.26-19.54,61.24-43.12,1.82-2.3,2.85-5.13,2.92-8.06,.45-9.19,1.94-18.29,4.44-27.14l12.08-47.11,1.79-4.1Z" fill="#ad7177"></path>
  <path d="M450.88,291.18l-.24-.38c-9.94-15.19-15-32.93-15.08-33.11l-.12-.41,.39-.18c.42-.19,42.37-19.77,61.06-43,1.75-2.22,2.74-4.94,2.81-7.76,.45-9.22,1.94-18.37,4.46-27.25l12.07-47.1,2.26-5.28,.45,1.08c5.24,12.47,19.74,68.54,24.07,85.43,1.44,5.46,.49,11.28-2.61,16-17.34,26-88.41,61.42-89.12,61.77l-.4,.19Zm-14.21-33.36c.81,2.71,5.72,18.36,14.59,32.07,5.77-2.9,71.82-36.45,88.34-61.24,2.94-4.48,3.84-9.99,2.47-15.17-4.2-16.41-18-69.86-23.57-84.18l-1.29,3-12.05,47c-2.48,8.81-3.97,17.86-4.43,27-.07,3.03-1.12,5.97-3,8.35-17.85,22.28-56.74,41.12-61.06,43.17Z"></path>
  <path d="M503.73,210.94c-.08,0-.15,0-.22-.05-.25-.12-.35-.42-.23-.67,.08-.15,7.88-15,34.79-4.07,.26,.1,.38,.39,.28,.65-.1,.26-.39,.38-.65,.28-26.07-10.6-33.45,3.44-33.52,3.59-.09,.17-.26,.27-.45,.27Z"></path>
  <path d="M532.29,215.06c-.12,0-.24-.04-.33-.12-.1-.09-10.64-9-23.79-8.41-.27,0-.49-.21-.52-.48-.02-.27,.19-.5,.46-.52h0c13.61-.58,24.39,8.56,24.5,8.66,.19,.19,.2,.5,0,.69-.08,.1-.2,.16-.33,.17h0Z"></path>
  <path d="M437.42,261.49l-12.69-.47s-3.45-.63-8,3.6c0,0-10.18,7.94-4.49,14,.25,.27,.34,.65,.22,1-.73,2.21-.15,4.63,1.5,6.27,.24,.24,.3,.6,.16,.91-1.42,2.82-.57,6.25,2,8.08,0,0,.94,.32,1.1,3,0,0,.16,5.49,7.68,2.66,0,0,15.82-7.52,23.66-14.1,0-.04-8.32-14.3-11.14-24.95Z" fill="#fff"></path>
  <path d="M421.12,301.81c-.94,.03-1.86-.22-2.65-.72-1.04-.76-1.69-1.94-1.76-3.23-.13-2.16-.78-2.53-.79-2.54l-.1-.05c-4.16-3.05-2.7-7.42-2.15-8.69,.07-.11,.07-.25,0-.36-1.78-1.77-2.41-4.39-1.63-6.77,.05-.17,.01-.36-.11-.49-1.32-1.32-1.99-3.14-1.84-5,.39-5,6.15-9.54,6.39-9.73,4.64-4.33,8.24-3.73,8.39-3.71l13,.48,.1,.36c2.77,10.47,11,24.65,11.07,24.79l.21,.36-.32,.27c-7.79,6.55-23.61,14.1-23.77,14.18-1.28,.52-2.65,.81-4.04,.85Zm-4.75-7.38c.33,.16,1.19,.83,1.34,3.38,.06,.97,.55,1.87,1.33,2.45,1.2,.8,3.16,.72,5.67-.22,.12-.06,15.39-7.35,23.2-13.75-1.3-2.29-8.24-14.72-10.87-24.32l-12.33-.45c-.1,0-3.35-.51-7.63,3.47-.09,.07-5.69,4.49-6,9.05-.13,1.58,.45,3.13,1.57,4.24,.36,.39,.49,.95,.34,1.46-.67,2.03-.14,4.26,1.36,5.77,.39,.38,.5,.97,.28,1.47-1.33,2.57-.59,5.73,1.74,7.45Z"></path>
  <path d="M416.74,264.62c1.72-2,4.12-3.31,6.73-3.67,0,0,4.89,1.21-12.18,10.66,.64-1.83,1.71-3.47,3.12-4.8l2.33-2.19Z"></path>
  <path d="M435.3,52.14c10.36,0,18.75-8.74,18.75-19.52s-8.4-19.52-18.75-19.52-18.75,8.74-18.75,19.52,8.4,19.52,18.75,19.52Z"></path>
  <path d="M453.06,48.51c6.98,0,12.63-5.89,12.63-13.15s-5.65-13.15-12.63-13.15-12.63,5.89-12.63,13.15,5.66,13.15,12.63,13.15Z"></path>
  <path d="M439.21,57.9c1.87-2.81,4.79-4.76,8.11-5.41l-8.11,5.41Z" fill="#fff"></path>
  <path d="M439.21,58.4c-.09,0-.18-.02-.25-.07-.24-.14-.32-.44-.19-.68,1.94-2.94,4.99-4.98,8.45-5.65,.27-.06,.53,.12,.59,.39,.06,.26-.11,.53-.37,.59h-.02c-3.17,.64-5.97,2.49-7.78,5.17-.09,.15-.25,.25-.43,.25Z"></path>
  <path d="M459.34,50.99c2.12,.62,4.14,1.53,6,2.71l-6-2.71Z" fill="#fff"></path>
  <path d="M465.34,54.19c-.1,0-.19-.03-.27-.08-1.83-1.15-3.8-2.03-5.87-2.64-.26-.07-.42-.35-.35-.61,.08-.26,.35-.42,.62-.35,2.17,.63,4.24,1.56,6.15,2.77,.23,.15,.29,.46,.14,.69-.09,.14-.25,.23-.42,.22Z"></path>
  <path d="M443.56,62.7c.91,0,1.65-1.01,1.65-2.25s-.74-2.25-1.65-2.25-1.65,1.01-1.65,2.25,.74,2.25,1.65,2.25Z"></path>
  <path d="M462.19,60.45c.91,0,1.65-1.01,1.65-2.25s-.74-2.25-1.65-2.25-1.65,1.01-1.65,2.25,.74,2.25,1.65,2.25Z"></path>
  <path d="M454.53,59.7l2.35,8.33-3.19,.08" fill="#fff"></path>
  <path d="M453.69,68.62c-.27,0-.49-.22-.5-.49,0-.28,.21-.5,.49-.51l2.54-.07-2.17-7.71c-.07-.28,.09-.56,.37-.64,.28-.07,.56,.09,.63,.37l2.35,8.33c.07,.27-.09,.54-.35,.61-.04,0-.08,.02-.12,.02l-3.18,.09h-.06Z"></path>
  <path d="M417.23,66.59c-.13,0-.26-.05-.35-.14-4.37-4.24-1.81-8.57-1.78-8.62,.14-.24,.45-.31,.69-.17,.24,.14,.31,.45,.17,.69-.9,1.69-.87,3.72,.07,5.38,0-.15,.03-.3,.07-.44,.18-.69,.66-1.27,1.31-1.57,.24-.13,.54-.04,.66,.2h0c.12,.25,.03,.55-.21,.68-.39,.17-.68,.51-.8,.92-.08,.8,.12,1.61,.57,2.28,.15,.23,.09,.54-.13,.69-.08,.06-.18,.08-.28,.09h.01Z"></path>
</svg>
