<?xml version="1.0" encoding="UTF-8"?>
<svg xmlns="http://www.w3.org/2000/svg" id="a" width="865.76" height="682.89" viewBox="0 0 865.76 682.89">
  <g>
    <g>
      <path d="M177.99,254.8c0-7.18-7-11-13-10-3.48,.58-6.19,2.13-8.46,4.43-.25,.25-.66,.19-.83-.12-.96-1.84-2.79-1.99-4.11-1.53-.35,.12-.71-.16-.67-.53,.04-.41,.07-.83,.07-1.25,0-7.31-6.04-13.21-13.4-12.99-6.71,.2-12.28,5.7-12.59,12.4-.08,1.75,.2,3.42,.75,4.96,.31,.85,.04,1.78-.67,2.33-3.28,2.52-5.33,6.55-5.07,11.07,.37,6.49,5.69,11.83,12.19,12.21,6.84,.41,12.61-4.49,13.62-10.96,.05-.31,.46-.38,.61-.1,2.15,4.2,6.52,7.08,11.57,7.08,3.81,0,7.23-1.65,9.61-4.26,5.93-1.21,10.39-6.45,10.39-12.74Z" fill="#2e748a"></path>
      <path d="M132.99,276.3c-.27,0-.55,0-.83-.02-6.71-.4-12.27-5.97-12.65-12.68-.26-4.47,1.71-8.76,5.26-11.49,.54-.42,.74-1.11,.51-1.77-.6-1.66-.86-3.39-.78-5.15,.32-7.01,6.06-12.67,13.07-12.88,3.7-.11,7.17,1.24,9.82,3.81,2.64,2.57,4.1,6.01,4.1,9.69,0,.42-.02,.85-.07,1.3,1.49-.51,3.61-.36,4.72,1.78,2.51-2.51,5.37-4,8.76-4.57,3.51-.59,7.34,.44,9.99,2.68,1.64,1.39,3.6,3.87,3.6,7.81,0,6.34-4.46,11.86-10.64,13.19-2.55,2.74-6.14,4.31-9.86,4.31-4.91,0-9.37-2.63-11.77-6.89-1.24,6.36-6.77,10.89-13.23,10.89Zm5-43c-.13,0-.26,0-.39,0-6.49,.19-11.81,5.43-12.1,11.92-.07,1.63,.17,3.23,.72,4.77,.38,1.06,.04,2.22-.84,2.9-3.29,2.53-5.11,6.5-4.87,10.64,.36,6.21,5.5,11.37,11.72,11.74,6.48,.38,12.1-4.14,13.1-10.53,.06-.35,.33-.63,.68-.69,.35-.05,.7,.12,.86,.44,2.15,4.2,6.41,6.8,11.12,6.8,3.5,0,6.86-1.49,9.24-4.1l.11-.12,.16-.03c5.79-1.18,9.99-6.33,9.99-12.25,0-3.56-1.76-5.8-3.24-7.05-2.43-2.05-5.94-3-9.18-2.46-3.18,.53-5.86,1.93-8.19,4.29-.23,.24-.55,.34-.88,.29-.32-.05-.6-.25-.75-.54-.82-1.57-2.34-1.69-3.5-1.29-.33,.12-.68,.06-.96-.16-.27-.22-.41-.55-.38-.9,.04-.39,.07-.79,.07-1.2,0-3.41-1.35-6.6-3.8-8.97-2.35-2.28-5.43-3.53-8.7-3.53Z" fill="#231f20"></path>
    </g>
    <path d="M249.18,508.87c-.16,0-.32-.08-.42-.22l-119.19-176.57c-.15-.23-.09-.54,.13-.69,.23-.15,.54-.09,.69,.13l119.19,176.57c.15,.23,.09,.54-.13,.69-.09,.06-.18,.09-.28,.09Z" fill="#231f20"></path>
    <path d="M129.83,508.34c-.1,0-.19-.03-.28-.08-.23-.15-.29-.47-.14-.69l119.15-177.04c.15-.23,.46-.29,.69-.14,.23,.15,.29,.47,.14,.69l-119.15,177.04c-.1,.14-.25,.22-.42,.22Z" fill="#231f20"></path>
    <g>
      <polygon points="120.24 325.84 120.24 613.85 260.14 613.85 260.14 325.3 248.84 325.3 248.84 600.88 130.13 600.88 130.13 325.3 120.24 325.84" fill="#fff"></polygon>
      <path d="M260.64,614.35H119.74V325.37l10.88-.6v275.6h117.71V324.8h12.31v289.55Zm-139.9-1h138.9V325.8h-10.31v275.58h-119.71V325.83l-8.88,.49v287.03Z" fill="#231f20"></path>
    </g>
    <g>
      <path d="M159.99,53.21l20.8,206.57c.12,1.23,1.17,2.17,2.41,2.17l266.32-1.4-26.67-203.52c-.1-.8-.78-1.4-1.59-1.42l-259.62-4.19c-.97-.02-1.74,.82-1.65,1.79Z" fill="#ab1212"></path>
      <path d="M183.18,262.45c-1.5,0-2.74-1.12-2.89-2.62l-20.8-206.57c-.06-.6,.14-1.21,.55-1.65,.41-.45,.99-.7,1.6-.69l259.62,4.19c1.05,.02,1.94,.81,2.08,1.85l26.74,204.08-266.89,1.4h-.02Zm-21.57-210.53c-.32,0-.61,.13-.83,.36-.22,.24-.32,.55-.29,.88l20.8,206.57c.1,.98,.91,1.72,1.9,1.72h.01l265.76-1.4-26.59-202.96c-.07-.55-.54-.97-1.1-.98l-259.62-4.19h-.02Z" fill="#231f20"></path>
    </g>
    <g>
      <path d="M167.05,58.86l17.97,176.91c.12,1.23,1.16,2.16,2.39,2.16h250.79l-21.03-176.65c-.1-.81-.78-1.43-1.6-1.44l-246.89-2.79c-.97-.01-1.74,.83-1.64,1.79Z" fill="#fff"></path>
      <path d="M438.77,238.43H187.42c-1.5,0-2.74-1.12-2.89-2.61l-17.97-176.92c-.06-.6,.14-1.2,.55-1.65,.41-.45,.95-.7,1.59-.69l246.89,2.79c1.06,.01,1.96,.82,2.09,1.88l21.1,177.2ZM167.55,58.81l17.97,176.91c.1,.98,.92,1.71,1.9,1.71h250.23l-20.96-176.09c-.07-.56-.54-.99-1.11-.99l-246.89-2.79c-.3,0-.62,.13-.85,.37-.22,.24-.32,.55-.29,.88Z" fill="#231f20"></path>
    </g>
    <path d="M241.77,70.26h-33.92c-.28,0-.5-.22-.5-.5s.22-.5,.5-.5h33.92c.28,0,.5,.22,.5,.5s-.22,.5-.5,.5Z" fill="#231f20"></path>
    <path d="M255.9,88.63h-32.5c-.28,0-.5-.22-.5-.5s.22-.5,.5-.5h32.5c.28,0,.5,.22,.5,.5s-.22,.5-.5,.5Z" fill="#231f20"></path>
    <path d="M349.17,88.63h-69.25c-.28,0-.5-.22-.5-.5s.22-.5,.5-.5h69.25c.28,0,.5,.22,.5,.5s-.22,.5-.5,.5Z" fill="#231f20"></path>
    <path d="M247.42,109.83h-24.02c-.28,0-.5-.22-.5-.5s.22-.5,.5-.5h24.02c.28,0,.5,.22,.5,.5s-.22,.5-.5,.5Z" fill="#231f20"></path>
    <path d="M329.39,109.83h-62.18c-.28,0-.5-.22-.5-.5s.22-.5,.5-.5h62.18c.28,0,.5,.22,.5,.5s-.22,.5-.5,.5Z" fill="#231f20"></path>
    <path d="M248.84,128.2h-33.92c-.28,0-.5-.22-.5-.5s.22-.5,.5-.5h33.92c.28,0,.5,.22,.5,.5s-.22,.5-.5,.5Z" fill="#231f20"></path>
    <path d="M302.54,147.99h-84.79c-.28,0-.5-.22-.5-.5s.22-.5,.5-.5h84.79c.28,0,.5,.22,.5,.5s-.22,.5-.5,.5Z" fill="#231f20"></path>
    <path d="M353.41,147.99h-32.5c-.28,0-.5-.22-.5-.5s.22-.5,.5-.5h32.5c.28,0,.5,.22,.5,.5s-.22,.5-.5,.5Z" fill="#231f20"></path>
    <path d="M244.6,169.19h-25.44c-.28,0-.5-.22-.5-.5s.22-.5,.5-.5h25.44c.28,0,.5,.22,.5,.5s-.22,.5-.5,.5Z" fill="#231f20"></path>
    <path d="M311.02,187.56h-76.31c-.28,0-.5-.22-.5-.5s.22-.5,.5-.5h76.31c.28,0,.5,.22,.5,.5s-.22,.5-.5,.5Z" fill="#231f20"></path>
    <path d="M340.7,207.34h-103.16c-.28,0-.5-.22-.5-.5s.22-.5,.5-.5h103.16c.28,0,.5,.22,.5,.5s-.22,.5-.5,.5Z" fill="#231f20"></path>
    <path d="M275.69,225.72h-49.46c-.28,0-.5-.22-.5-.5s.22-.5,.5-.5h49.46c.28,0,.5,.22,.5,.5s-.22,.5-.5,.5Z" fill="#231f20"></path>
    <path d="M412.77,71.68h-39.57c-.28,0-.5-.22-.5-.5s.22-.5,.5-.5h39.57c.28,0,.5,.22,.5,.5s-.22,.5-.5,.5Z" fill="#231f20"></path>
    <path d="M388.74,78.74h-21.2c-.28,0-.5-.22-.5-.5s.22-.5,.5-.5h21.2c.28,0,.5,.22,.5,.5s-.22,.5-.5,.5Z" fill="#231f20"></path>
    <path d="M415.59,88.63h-39.57c-.28,0-.5-.22-.5-.5s.22-.5,.5-.5h39.57c.28,0,.5,.22,.5,.5s-.22,.5-.5,.5Z" fill="#231f20"></path>
    <path d="M388.74,95.7h-16.96c-.28,0-.5-.22-.5-.5s.22-.5,.5-.5h16.96c.28,0,.5,.22,.5,.5s-.22,.5-.5,.5Z" fill="#231f20"></path>
    <path d="M388.74,111.25h-11.31c-.28,0-.5-.22-.5-.5s.22-.5,.5-.5h11.31c.28,0,.5,.22,.5,.5s-.22,.5-.5,.5Z" fill="#231f20"></path>
    <path d="M416.3,111.25h-18.37c-.28,0-.5-.22-.5-.5s.22-.5,.5-.5h18.37c.28,0,.5,.22,.5,.5s-.22,.5-.5,.5Z" fill="#231f20"></path>
    <path d="M390.16,118.31h-11.31c-.28,0-.5-.22-.5-.5s.22-.5,.5-.5h11.31c.28,0,.5,.22,.5,.5s-.22,.5-.5,.5Z" fill="#231f20"></path>
    <path d="M417.71,118.31h-18.37c-.28,0-.5-.22-.5-.5s.22-.5,.5-.5h18.37c.28,0,.5,.22,.5,.5s-.22,.5-.5,.5Z" fill="#231f20"></path>
    <path d="M406.41,133.86h-32.5c-.28,0-.5-.22-.5-.5s.22-.5,.5-.5h32.5c.28,0,.5,.22,.5,.5s-.22,.5-.5,.5Z" fill="#231f20"></path>
    <g>
      <polygon points="418.99 96.8 422.66 124.88 452.34 124.88 449.51 96.61 418.99 96.8" fill="#2e748a"></polygon>
      <path d="M452.89,125.38h-30.67l-3.81-29.08,31.55-.19,2.93,29.27Zm-29.79-1h28.69l-2.73-27.26-29.51,.18,3.55,27.08Z" fill="#231f20"></path>
    </g>
    <g>
      <polygon points="425.99 135.8 429.73 164.45 460.99 164.8 456.58 136.18 425.99 135.8" fill="#fff"></polygon>
      <path d="M461.57,165.31l-32.28-.36-3.87-29.65,31.59,.4,4.56,29.62Zm-31.4-1.35l30.23,.34-4.25-27.61-29.59-.37,3.61,27.65Z" fill="#231f20"></path>
    </g>
    <path d="M383.84,141.15h-9.89c-.28,0-.5-.22-.5-.5s.22-.5,.5-.5h9.89c.28,0,.5,.22,.5,.5s-.22,.5-.5,.5Z" fill="#231f20"></path>
    <path d="M409.28,148.22h-29.68c-.28,0-.5-.22-.5-.5s.22-.5,.5-.5h29.68c.28,0,.5,.22,.5,.5s-.22,.5-.5,.5Z" fill="#231f20"></path>
    <path d="M422,156.69h-39.57c-.28,0-.5-.22-.5-.5s.22-.5,.5-.5h39.57c.28,0,.5,.22,.5,.5s-.22,.5-.5,.5Z" fill="#231f20"></path>
    <path d="M396.56,163.76h-18.37c-.28,0-.5-.22-.5-.5s.22-.5,.5-.5h18.37c.28,0,.5,.22,.5,.5s-.22,.5-.5,.5Z" fill="#231f20"></path>
    <path d="M397.97,170.83h-19.78c-.28,0-.5-.22-.5-.5s.22-.5,.5-.5h19.78c.28,0,.5,.22,.5,.5s-.22,.5-.5,.5Z" fill="#231f20"></path>
    <path d="M388.08,177.89h-9.89c-.28,0-.5-.22-.5-.5s.22-.5,.5-.5h9.89c.28,0,.5,.22,.5,.5s-.22,.5-.5,.5Z" fill="#231f20"></path>
    <path d="M399.39,184.96h-15.55c-.28,0-.5-.22-.5-.5s.22-.5,.5-.5h15.55c.28,0,.5,.22,.5,.5s-.22,.5-.5,.5Z" fill="#231f20"></path>
    <path d="M424.82,184.96h-19.78c-.28,0-.5-.22-.5-.5s.22-.5,.5-.5h19.78c.28,0,.5,.22,.5,.5s-.22,.5-.5,.5Z" fill="#231f20"></path>
    <path d="M396.56,193.44h-11.31c-.28,0-.5-.22-.5-.5s.22-.5,.5-.5h11.31c.28,0,.5,.22,.5,.5s-.22,.5-.5,.5Z" fill="#231f20"></path>
    <path d="M424.82,193.44h-22.61c-.28,0-.5-.22-.5-.5s.22-.5,.5-.5h22.61c.28,0,.5,.22,.5,.5s-.22,.5-.5,.5Z" fill="#231f20"></path>
    <path d="M426.24,206.16h-43.81c-.28,0-.5-.22-.5-.5s.22-.5,.5-.5h43.81c.28,0,.5,.22,.5,.5s-.22,.5-.5,.5Z" fill="#231f20"></path>
    <path d="M392.32,216.05h-8.48c-.28,0-.5-.22-.5-.5s.22-.5,.5-.5h8.48c.28,0,.5,.22,.5,.5s-.22,.5-.5,.5Z" fill="#231f20"></path>
    <path d="M416.34,223.12h-28.26c-.28,0-.5-.22-.5-.5s.22-.5,.5-.5h28.26c.28,0,.5,.22,.5,.5s-.22,.5-.5,.5Z" fill="#231f20"></path>
    <path d="M397.97,230.18h-14.13c-.28,0-.5-.22-.5-.5s.22-.5,.5-.5h14.13c.28,0,.5,.22,.5,.5s-.22,.5-.5,.5Z" fill="#231f20"></path>
    <g>
      <rect x="103.28" y="298.7" width="303.84" height="32.5" fill="#fff"></rect>
      <path d="M407.62,331.71H102.78v-33.5H407.62v33.5Zm-303.84-1H406.62v-31.5H103.78v31.5Z" fill="#231f20"></path>
    </g>
    <g>
      <polygon points="239.93 261.56 230.46 298.7 376.03 298.7 376.03 290.22 243.18 290.22 251.55 261.39 239.93 261.56" fill="#fff"></polygon>
      <path d="M376.53,299.2H229.82l9.72-38.13,12.67-.19-8.37,28.84h132.68v9.48Zm-145.42-1h144.42v-7.48H242.52l8.36-28.82-10.55,.16-9.21,36.15Z" fill="#231f20"></path>
    </g>
    <g>
      <polygon points="118.41 263.37 178.18 263.37 175.47 298.75 121.65 298.75 118.41 263.37" fill="#fff"></polygon>
      <path d="M175.93,299.25h-54.74l-3.33-36.38h60.86l-2.78,36.38Zm-53.83-1h52.9l2.63-34.38h-58.68l3.15,34.38Z" fill="#231f20"></path>
    </g>
    <g>
      <path d="M301.12,431.54s-8.8,4.49-14.47-25.63l11.65-8.29s3.97,22.66,2.83,33.92Z" fill="#231f20"></path>
      <path d="M299.87,432.28c-.62,0-1.41-.13-2.31-.57-3.3-1.62-7.96-7.39-11.4-25.7l-.06-.31,12.55-8.94,.14,.78c.04,.23,3.96,22.86,2.83,34.05l-.03,.27-.24,.12s-.59,.29-1.48,.29Zm-12.67-26.14c3.35,17.57,7.69,23.1,10.75,24.65,1.3,.65,2.27,.52,2.7,.4,.91-9.97-2.05-28.64-2.72-32.69l-10.74,7.64Z" fill="#231f20"></path>
    </g>
    <g>
      <path d="M163.23,388.55s.81-5.05,3.64-6.47c0,0,11.31-7.07,24.02-2.83,12.72,4.24,76.31,38.16,76.31,38.16,0,0,1.41,7.07-1.41,15.55,0,0-2.83,12.72-18.37,8.48l-42.4-26.85s-21.2-2.83-24.02-5.65c-2.83-2.83-17.77-20.38-17.77-20.38Z" fill="#fff"></path>
      <path d="M253.34,442.8c-1.87,0-3.89-.29-6.05-.88l-.14-.06-42.3-26.79c-1.83-.25-21.37-2.94-24.2-5.78-2.81-2.81-17.19-19.7-17.8-20.41l-.15-.18,.04-.23c.03-.22,.89-5.32,3.91-6.84,.07-.05,11.61-7.12,24.41-2.85,12.61,4.2,75.75,37.85,76.39,38.19l.21,.11,.05,.23c.06,.29,1.41,7.29-1.43,15.8-.03,.16-1.17,5.05-5.79,7.84-2.04,1.23-4.43,1.85-7.14,1.85Zm-5.72-1.83c4.98,1.35,9.13,1.05,12.33-.87,4.26-2.56,5.34-7.21,5.35-7.25,2.48-7.45,1.65-13.84,1.45-15.11-4.09-2.18-63.85-33.95-76.02-38.01-12.34-4.11-23.49,2.71-23.6,2.78-2.28,1.14-3.18,4.94-3.37,5.9,1.59,1.87,14.96,17.55,17.59,20.17,2.22,2.22,17.89,4.73,23.74,5.51l.2,.07,42.33,26.81Z" fill="#231f20"></path>
    </g>
    <g>
      <path d="M244.6,377.84s-15.55,7.07-29.68,2.83c0,0-36.74-11.31-48.05,1.41,0,0,18.37-4.24,29.68,8.48,0,0,14.03,14.03,38.45,16.64,4.3,.46,8.54,1.34,12.57,2.9,8.52,3.31,20.03,10.18,18.22,22.85l16.96-24.02,7.07-9.89-5.65-11.31-22.61-9.89h-16.96Z" fill="#ab1212"></path>
      <path d="M265.01,434.94l.29-2.05c1.72-12.03-8.79-18.77-17.91-22.31-3.69-1.43-7.76-2.37-12.44-2.87-24.32-2.6-38.61-16.65-38.75-16.79-10.99-12.36-29.03-8.39-29.21-8.35l-1.53,.35,1.04-1.17c11.39-12.81,47.06-2.02,48.57-1.56,13.78,4.13,29.17-2.73,29.32-2.8l.21-.04,17.16,.04,22.78,9.96,5.87,11.74-7.24,10.14-18.15,25.72Zm-91.04-54.01c6.5,0,16.06,1.54,22.95,9.3,.12,.12,14.18,13.92,38.13,16.48,4.77,.51,8.93,1.47,12.7,2.93,7.37,2.86,19.23,9.37,18.71,21.5l15.88-22.5,6.89-9.65-5.44-10.87-22.35-9.78h-16.75c-1.38,.6-16.38,6.87-29.93,2.81-.36-.11-34.33-10.39-46.43,.17,1.28-.18,3.24-.39,5.62-.39Z" fill="#231f20"></path>
    </g>
    <g>
      <path d="M450.93,483.83v121.68c0,3.82,3.1,6.92,6.92,6.92h138.64v-131.43h-14.13v113.2c0,3.82-3.1,6.92-6.92,6.92h-102.04c-3.82,0-6.92-3.1-6.92-6.92v-108.96l-15.55-1.41Z" fill="#fff"></path>
      <path d="M596.99,612.94h-139.14c-4.09,0-7.42-3.33-7.42-7.42v-122.23l16.54,1.5v109.42c0,3.54,2.88,6.42,6.42,6.42h102.04c3.54,0,6.42-2.88,6.42-6.42v-113.7h15.13v132.43Zm-145.56-128.55v121.13c0,3.54,2.88,6.42,6.42,6.42h138.14v-130.43h-13.13v112.7c0,4.09-3.33,7.42-7.42,7.42h-102.04c-4.09,0-7.42-3.33-7.42-7.42v-108.51l-14.54-1.32Z" fill="#231f20"></path>
    </g>
    <g>
      <path d="M647.01,606.78h-115.62c-2.29,0-4.15-1.86-4.15-4.15v-115.97h-11.31v122.95s-.81,9.69,14.43,11.2h54.67s9.74-.05,16.95-2.09l45.03-11.85c.05-.01,.04-.09-.01-.09Z" fill="#fff"></path>
      <path d="M585.05,621.31h-54.68c-15.6-1.55-14.94-11.64-14.93-11.75v-123.41s12.3,0,12.3,0v116.47c0,2.02,1.64,3.65,3.65,3.65h116.06l.16,.91-.46,.16-45.03,11.85c-7.19,2.04-16.98,2.11-17.08,2.11Zm-68.61-134.15v122.45c-.03,.42-.55,9.26,13.98,10.71h54.63c.09,0,9.75-.07,16.81-2.08l41.64-10.96h-112.1c-2.57,0-4.65-2.09-4.65-4.65v-115.47h-10.31Z" fill="#231f20"></path>
    </g>
    <g>
      <path d="M377.44,287.4l-101.75,72.07s26.79,15.51,25.44,71.89c0,.07,.08,.12,.14,.08l25.29-18.27-45.22,139.91s21.2,25.44,67.83,31.09c0,0,48.05-128.6,57.94-148.39,0,0,16.96,2.83,50.88,1.41,0,0,55.12,1.41,74.9,8.48,0,0,18.37,7.07,33.92,0,0,0,28.88-7.22,57.78-2.78,5.6,.86,11.31-.41,15.98-3.62,5.87-4.04,12.93-10.46,15.27-19.04l-84.69-52.19-26.95-4.34s-117.3-22.61-118.71-21.2-19.78-14.13-19.78-14.13l-28.26-40.98Z" fill="#2e748a"></path>
      <path d="M349.5,584.72l-.39-.05c-46.3-5.61-67.94-31.01-68.16-31.27l-.18-.21,.08-.26,44.75-138.45-24.31,17.55-.37-.14c-.2-.1-.32-.31-.32-.53,1.33-55.45-24.93-71.3-25.19-71.45l-.67-.39,102.8-72.82,28.51,41.35c8.31,7.02,17.64,14.16,19.12,14.06,.51-.38,3.58-.54,60.27,9.98,29.17,5.41,58.53,11.07,58.83,11.13l27.04,4.35,.08,.05,85.01,52.38-.1,.36c-2.41,8.82-9.74,15.37-15.47,19.32-4.76,3.28-10.57,4.59-16.34,3.7-28.46-4.37-57.29,2.7-57.58,2.77-15.47,7.04-34.03,.05-34.22-.02-19.47-6.95-74.18-8.43-74.73-8.45-30.86,1.29-47.91-.97-50.58-1.36-10.12,20.58-57.28,146.73-57.76,148.01l-.14,.37Zm-67.6-31.75c2.15,2.42,23.54,25.28,66.94,30.66,2.87-7.66,48.3-129.01,57.82-148.07l.17-.33,.36,.06c.17,.03,17.32,2.8,50.77,1.41,.59,.01,55.46,1.5,75.09,8.51,.19,.07,18.37,6.91,33.54,.02,.38-.1,29.4-7.22,58.06-2.82,5.53,.85,11.07-.41,15.62-3.54,5.51-3.79,12.55-10.05,14.97-18.4l-84.29-51.94-26.85-4.33c-31.81-6.13-114.86-21.87-118.4-21.25-1.83,.93-12.01-7.15-20.34-14.19l-.09-.1-27.98-40.57-100.74,71.36c4.05,2.83,26.04,20.56,25.07,71.09l25.86-18.68-45.61,141.09Z" fill="#231f20"></path>
    </g>
    <g>
      <path d="M352.8,251.27l52.12,79.43c1.32,2.01,3.73,3.02,6.09,2.55l115.89-26.14c2.78-.63,3.96-3.93,2.21-6.18l-59.8-76.7c-.89-1.14-2.33-1.69-3.75-1.44l-108.73,19.4c-4.25,.65-6.4,5.48-4.04,9.08Z" fill="#2e748a"></path>
      <path d="M409.85,333.87c-2.13,0-4.14-1.06-5.34-2.89l-52.12-79.43c-1.2-1.83-1.39-4.12-.5-6.12,.89-2,2.72-3.39,4.88-3.72l108.72-19.4c1.6-.29,3.23,.33,4.23,1.62l59.8,76.7c.93,1.19,1.18,2.75,.67,4.17-.51,1.42-1.69,2.47-3.16,2.8l-115.89,26.14c-.43,.09-.86,.13-1.28,.13Zm-56.63-82.87l52.12,79.43c1.22,1.85,3.41,2.77,5.58,2.33l115.88-26.13c1.14-.26,2.05-1.06,2.44-2.16s.2-2.3-.52-3.22l-59.8-76.7c-.77-.99-2.02-1.47-3.26-1.25l-108.73,19.4c-1.84,.28-3.38,1.46-4.13,3.14-.75,1.69-.6,3.62,.42,5.16h0Z" fill="#231f20"></path>
    </g>
    <g>
      <polygon points="367.55 246.41 465.06 228.04 520.17 300.12 422.66 324.14 367.55 246.41" fill="#fff"></polygon>
      <path d="M422.45,324.71l-.2-.28-55.57-78.36,98.58-18.57,55.77,72.92-98.58,24.29Zm-54.05-77.95l54.47,76.81,96.44-23.76-54.46-71.22-96.44,18.17Z" fill="#231f20"></path>
    </g>
    <g>
      <rect x="382.41" y="278.34" width="6.52" height="13.99" rx="3.26" ry="3.26" transform="translate(-91 231.06) rotate(-30)" fill="#231f20"></rect>
      <path d="M387.54,292.33c-1.3,0-2.57-.67-3.26-1.88l-3.73-6.46c-.5-.87-.64-1.88-.38-2.85,.26-.97,.88-1.78,1.75-2.28,1.8-1.04,4.1-.42,5.14,1.38l3.73,6.46c.5,.87,.64,1.88,.38,2.85-.26,.97-.88,1.78-1.75,2.28-.59,.34-1.24,.5-1.87,.5Zm-3.74-12.99c-.47,0-.94,.12-1.38,.37-.64,.37-1.1,.96-1.29,1.68-.19,.71-.09,1.46,.28,2.1l3.73,6.46c.37,.64,.96,1.1,1.68,1.29,.71,.19,1.46,.09,2.1-.28h0c.64-.37,1.1-.96,1.29-1.68s.09-1.46-.28-2.1l-3.73-6.46c-.51-.88-1.44-1.38-2.4-1.38Z" fill="#231f20"></path>
    </g>
    <path d="M405.7,246.91c-.23,0-.44-.16-.49-.39-.06-.27,.11-.54,.38-.6l57.94-12.72c.27-.06,.54,.11,.6,.38,.06,.27-.11,.54-.38,.6l-57.94,12.72s-.07,.01-.11,.01Z" fill="#231f20"></path>
    <path d="M411.35,256.81c-.22,0-.43-.15-.48-.38-.07-.27,.1-.54,.37-.6l42.63-10.51c.27-.07,.54,.1,.6,.37,.07,.27-.1,.54-.37,.6l-42.63,10.51s-.08,.01-.12,.01Z" fill="#231f20"></path>
    <path d="M407.12,269.53c-.22,0-.42-.15-.48-.37-.07-.27,.08-.54,.35-.61l22.87-6.23c.27-.07,.54,.08,.61,.35s-.08,.54-.35,.61l-22.87,6.23s-.09,.02-.13,.02Z" fill="#231f20"></path>
    <path d="M435.12,261.53c-.22,0-.42-.15-.48-.37-.07-.27,.09-.54,.36-.61l38.87-10.23c.27-.07,.54,.09,.61,.36s-.09,.54-.36,.61l-38.87,10.23s-.09,.02-.13,.02Z" fill="#231f20"></path>
    <path d="M426.9,278c-.22,0-.42-.15-.48-.37-.07-.27,.08-.54,.35-.61l57.08-15.71c.26-.07,.54,.08,.61,.35,.07,.27-.08,.54-.35,.61l-57.08,15.71s-.09,.02-.13,.02Z" fill="#231f20"></path>
    <path d="M433.97,287.9c-.22,0-.42-.15-.48-.37-.07-.27,.09-.54,.35-.61l58.02-15.6c.26-.07,.54,.09,.61,.35,.07,.27-.09,.54-.35,.61l-58.02,15.6s-.09,.02-.13,.02Z" fill="#231f20"></path>
    <path d="M429.73,300.62c-.22,0-.42-.14-.48-.36-.08-.27,.08-.54,.34-.62l18.26-5.32c.27-.08,.54,.08,.62,.34,.08,.27-.08,.54-.34,.62l-18.26,5.32s-.09,.02-.14,.02Z" fill="#231f20"></path>
    <path d="M443.86,310.51c-.23,0-.43-.15-.49-.38-.06-.27,.1-.54,.37-.6l46.64-11.31c.27-.07,.54,.1,.6,.37,.06,.27-.1,.54-.37,.6l-46.64,11.31s-.08,.01-.12,.01Z" fill="#231f20"></path>
    <g>
      <polygon points="315.5 261.22 315.5 290.22 329.02 290.22 324.69 261.22 315.5 261.22" fill="#fff"></polygon>
      <path d="M329.6,290.72h-14.6v-30.01h10.12l4.48,30.01Zm-13.6-1h12.44l-4.18-28.01h-8.26v28.01Z" fill="#231f20"></path>
    </g>
    <g>
      <polygon points="579.69 154.29 580.94 170.1 626.16 161.62 619.1 136.18 606.38 127.7 585.18 123.46 579.69 154.29" fill="#fff"></polygon>
      <path d="M580.49,170.69l-1.3-16.43,5.59-31.39,21.88,4.41,12.87,8.58,7.26,26.14-46.3,8.68Zm-.29-16.38l1.2,15.19,44.14-8.28-6.87-24.73-12.48-8.32-20.6-4.12-5.39,30.26Z" fill="#231f20"></path>
    </g>
    <g>
      <path d="M400.96,449.73v18.37c0,3.3,2.53,6.05,5.81,6.33l110.57,9.4s55.12,5.65,65.01-8.48l11.31,2.83h60.77s12.72,0,12.72-24.02v-15.55s-5.36-2.32-23.17-2.57c0,0-6.7,8.34-19.32,6.87,0,0-22.51-4.29-57.84,2.77,0,0-14.13,7.07-33.92,0,0,0-22.61-7.07-74.9-8.48,0,0-42.4,1.41-50.88-1.41l-6.16,13.95Z" fill="#e6e7e8"></path>
      <path d="M541.31,485.48c-12.47,0-23.04-1.05-24.02-1.15l-110.57-9.4c-3.58-.3-6.27-3.24-6.27-6.83l.04-18.57,6.34-14.37,.43,.14c8.3,2.77,50.28,1.4,50.7,1.39,51.79,1.4,74.84,8.43,75.07,8.5,19.35,6.91,33.41,.1,33.54,.03l.12-.04c35.02-7,57.81-2.82,58.03-2.77,12.14,1.41,18.77-6.61,18.84-6.69l.15-.19h.24c17.71,.25,23.14,2.52,23.36,2.62l.3,.13v15.87c0,24.25-12.68,24.52-13.22,24.52l-60.89-.02-10.98-2.74c-5.89,7.81-25.15,9.56-41.25,9.56Zm-139.86-35.64v18.27c0,3.07,2.3,5.57,5.36,5.83l110.57,9.4c.56,.06,54.94,5.46,64.56-8.27l.2-.28,11.58,2.9h60.71c.12,0,12.22-.34,12.22-23.52v-15.2c-1.35-.46-7.42-2.19-22.45-2.42-1.12,1.25-7.94,8.22-19.61,6.86-.26-.05-22.85-4.19-57.63,2.75-1.07,.5-15.16,6.81-34.24,0-.21-.06-23.15-7.06-74.75-8.45-1.68,.06-41.24,1.34-50.58-1.31l-5.94,13.45Z" fill="#231f20"></path>
    </g>
    <path d="M575.29,475.85s-.02,0-.03,0c-.28-.02-.48-.25-.47-.53,.29-4.62-1.12-8.67-4.18-12.06-9.48-10.48-31.85-11.43-32.08-11.43l-128.61-5.65c-.28-.01-.49-.25-.48-.52s.25-.49,.52-.48l128.6,5.65c.93,.03,23.01,.97,32.78,11.76,3.25,3.59,4.75,7.9,4.44,12.79-.02,.27-.24,.47-.5,.47Z" fill="#231f20"></path>
    <path d="M650.19,450.42c-.12,0-.23-.04-.33-.12-9.61-8.24-21.19-6.66-21.31-6.65-.28,.04-.53-.15-.57-.42-.04-.27,.15-.53,.42-.57,.12-.02,12.15-1.65,22.1,6.88,.21,.18,.23,.5,.05,.7-.1,.12-.24,.17-.38,.17Z" fill="#231f20"></path>
    <path d="M326.56,413.67c-.14,0-.28-.06-.38-.18-.18-.21-.15-.53,.06-.7l53.7-45.22c.65-.53,15.8-12.84,25.76-12.84,.28,0,.5,.22,.5,.5s-.22,.5-.5,.5c-9.6,0-24.97,12.48-25.12,12.61l-53.7,45.22c-.09,.08-.21,.12-.32,.12Z" fill="#231f20"></path>
    <path d="M327.98,557.82c-.05,0-.11,0-.16-.03-.26-.09-.4-.37-.31-.63,.41-1.22,41.16-121.86,55.16-145.65,.14-.24,.45-.32,.68-.18s.32,.45,.18,.68c-13.94,23.71-54.66,144.25-55.07,145.47-.07,.21-.26,.34-.47,.34Z" fill="#231f20"></path>
    <path d="M407.12,436.28s-.05,0-.08,0l-16.96-2.83c-.27-.05-.46-.3-.41-.58,.04-.27,.3-.46,.58-.41l16.96,2.83c.27,.05,.46,.3,.41,.58-.04,.24-.25,.42-.49,.42Z" fill="#231f20"></path>
    <path d="M513.11,427.81s-.04,0-.07,0l-86.97-11.68c-4.09-.55-7.95-2.55-10.88-5.63-1.21-1.27-2.29-1.91-3.21-1.91h0c-1.09,0-1.92,.89-2.66,1.67-.15,.16-.29,.31-.43,.45-2.42,2.83-4.6,4.04-6.43,3.56-2.4-.63-3.53-3.87-4.05-6.48-.3-1.47-.78-2.75-1.44-3.79-1.29-2.05-2.72-3.05-4.22-3.03-3.39,.09-6.35,5.34-6.38,5.4-.13,.24-.44,.33-.68,.19-.24-.13-.33-.44-.19-.68,.13-.24,3.27-5.8,7.23-5.91,1.89-.04,3.6,1.12,5.1,3.5,.72,1.15,1.25,2.53,1.57,4.13,.31,1.54,1.25,5.17,3.33,5.71,1.41,.37,3.3-.76,5.45-3.27,.16-.16,.3-.31,.44-.46,.83-.88,1.87-1.99,3.38-1.99h0c1.23,0,2.52,.73,3.94,2.23,2.77,2.92,6.42,4.81,10.28,5.33l86.97,11.68c.27,.04,.47,.29,.43,.56-.03,.25-.25,.43-.5,.43Z" fill="#231f20"></path>
    <g>
      <path d="M319.99,577.8v9c-14.13,0-16.03,11.5-16.03,11.5l-10.64-.76c-10.42-.73-19.42-7.62-22.8-17.5-.33-.95-.48-1.53-.48-1.53,5.65-9.89,11.31-25.44,11.31-25.44,15.55,16.96,38.65,24.72,38.65,24.72Z" fill="#fff"></path>
      <path d="M304.37,598.83l-11.1-.8c-10.67-.75-19.79-7.75-23.23-17.83-.33-.97-.49-1.56-.49-1.56l-.05-.2,.1-.18c5.57-9.74,11.21-25.21,11.27-25.36l.28-.77,.56,.61c15.28,16.66,38.21,24.5,38.44,24.58l.34,.11v9.86h-.5c-13.52,0-15.46,10.63-15.54,11.09l-.08,.45Zm-33.8-20.25c.07,.24,.21,.69,.42,1.3,3.32,9.7,12.09,16.43,22.36,17.16l10.21,.73c.54-2.14,3.57-11.23,15.93-11.47v-8.15c-2.9-1.04-23.55-8.79-37.96-24.14-1.21,3.23-6.09,16-10.95,24.57Z" fill="#231f20"></path>
    </g>
    <g>
      <rect x="206.44" y="619.5" width="122.95" height="9.89" fill="#fff"></rect>
      <path d="M329.89,629.89h-123.95v-10.89h123.95v10.89Zm-122.95-1h121.95v-8.89h-121.95v8.89Z" fill="#231f20"></path>
    </g>
    <g>
      <path d="M275.69,359.47s-18.37,11.31-31.09,18.37c0,0-1.13,11.34,12.85,14.72,2.42,.58,4.91,.78,7.4,.69,5.16-.19,19.06,.69,17.9,15.68l15.55-11.31s-4.24-25.44-22.61-38.16Z" fill="#fff"></path>
      <path d="M282.17,409.97l.08-1.08c.35-4.57-.71-8.17-3.15-10.71-3.99-4.16-10.64-4.57-14.24-4.43-2.68,.1-5.21-.14-7.53-.7-14.25-3.44-13.25-15.14-13.23-15.26l.03-.26,.23-.13c12.56-6.98,30.89-18.25,31.07-18.36l.28-.17,.27,.19c18.33,12.69,22.78,38.23,22.82,38.49l.05,.3-16.67,12.12Zm-16.21-17.24c3.91,0,10.01,.73,13.87,4.76,2.45,2.55,3.62,6.05,3.48,10.42l14.44-10.5c-.55-2.88-5.38-25.58-22.08-37.34-2.35,1.44-18.87,11.56-30.59,18.08-.08,1.7,.1,10.94,12.49,13.93,2.24,.54,4.68,.77,7.26,.67,.35-.01,.73-.02,1.13-.02Z" fill="#231f20"></path>
    </g>
    <path d="M155.56,299.43c-.28,0-.5-.22-.5-.5v-29.91c0-.28,.22-.5,.5-.5s.5,.22,.5,.5v29.91c0,.28-.22,.5-.5,.5Z" fill="#231f20"></path>
    <g>
      <rect x="545.97" y="78.54" width="43.81" height="77.59" rx="21.9" ry="21.9" transform="translate(-8.75 178.58) rotate(-17.74)" fill="#fff"></rect>
      <path d="M572.99,155.84c-3.52,0-7.02-.84-10.24-2.5-5.32-2.74-9.25-7.39-11.08-13.09l-10.29-32.18c-1.82-5.7-1.32-11.77,1.42-17.09,2.74-5.32,7.39-9.25,13.09-11.08,5.7-1.82,11.77-1.32,17.09,1.42,5.32,2.74,9.25,7.39,11.08,13.09l10.29,32.18c1.82,5.7,1.32,11.77-1.42,17.09-2.74,5.32-7.39,9.25-13.09,11.08-2.25,.72-4.56,1.08-6.85,1.08Zm-10.24-76.01c-2.19,0-4.4,.34-6.54,1.03-5.45,1.74-9.89,5.5-12.51,10.58-2.62,5.08-3.1,10.88-1.36,16.33l10.29,32.18c1.74,5.45,5.5,9.89,10.58,12.51,5.08,2.62,10.88,3.1,16.33,1.36,5.45-1.74,9.89-5.5,12.51-10.58s3.1-10.88,1.36-16.33l-10.29-32.18c-1.74-5.45-5.5-9.89-10.58-12.51-3.08-1.59-6.42-2.39-9.78-2.39Z" fill="#231f20"></path>
    </g>
    <g>
      <path d="M556.92,109.33l-24.02-24.02s-14.13-15.55,18.37-24.02c0,0-7.07-9.89,15.55-5.65,0,0,14.13-11.31,22.61,0,0,0,28.26-2.83,28.26,35.33,0,0-1.41,25.44,1.41,45.22,0,0-29.3,22.8-49.98-14.04l-12.2-12.81Z" fill="#fff"></path>
      <path d="M598.56,143.65c-1.77,0-3.6-.16-5.46-.54-9.56-1.93-17.76-8.88-24.4-20.67l-12.15-12.76-24.02-24.02c-.2-.22-4.55-5.09-2.79-11.02,1.74-5.84,8.71-10.44,20.74-13.67-.52-.96-1.3-2.9-.26-4.53,1.66-2.6,7.19-3.05,16.45-1.34,1.21-.92,7.93-5.76,14.76-4.89,3.25,.41,6.01,2.06,8.21,4.9,1.74-.11,10.81-.33,18.35,6.49,6.76,6.12,10.19,15.99,10.19,29.36-.01,.28-1.38,25.64,1.41,45.15l.04,.29-.23,.18c-.1,.08-9.25,7.07-20.84,7.07Zm-41.2-88.59c-4.01,0-5.66,.92-6.29,1.91-1.06,1.65,.58,4,.6,4.02l.42,.59-.7,.18c-12.06,3.15-19.02,7.58-20.68,13.16-1.6,5.39,2.51,10,2.55,10.04l24.02,24.02,12.27,12.91c6.49,11.56,14.48,18.36,23.75,20.23,12.56,2.53,23.55-4.94,25.26-6.18-2.75-19.57-1.39-44.77-1.38-45.03,0-13.04-3.32-22.67-9.86-28.59-7.87-7.12-17.76-6.23-17.86-6.22l-.28,.03-.17-.23c-2.06-2.75-4.65-4.34-7.7-4.73-6.96-.88-14.13,4.76-14.2,4.82l-.18,.14-.23-.04c-4.04-.76-7.07-1.06-9.35-1.06Z" fill="#231f20"></path>
    </g>
    <g>
      <ellipse cx="563.28" cy="114.99" rx="6.36" ry="9.89" transform="translate(-5.91 195.81) rotate(-19.62)" fill="#fff"></ellipse>
      <path d="M565.19,125.04c-3.21,0-6.73-3.13-8.38-7.75-.92-2.58-1.14-5.24-.61-7.5,.54-2.33,1.82-3.97,3.58-4.6,1.77-.63,3.78-.17,5.68,1.29,1.83,1.41,3.35,3.61,4.27,6.19,1.92,5.4,.59,10.82-2.97,12.09-.51,.18-1.04,.27-1.57,.27Zm-3.81-19.12c-.44,0-.86,.07-1.26,.22-1.43,.51-2.48,1.89-2.94,3.88-.48,2.07-.28,4.53,.58,6.93,1.74,4.88,5.63,7.97,8.67,6.88,3.04-1.08,4.1-5.94,2.37-10.81h0c-.85-2.4-2.25-4.44-3.94-5.74-1.16-.9-2.36-1.36-3.47-1.36Z" fill="#231f20"></path>
    </g>
    <g>
      <path d="M329.39,619.5h-122.95c-1.41-9.89,29.68-15.55,29.68-15.55,18.37-5.65,33.92-25.44,33.92-25.44,0,0,.16,.58,.48,1.53,3.38,9.88,12.38,16.76,22.8,17.5l8.05,.58c1.41,.1,2.7-.78,3.14-2.13,.87-2.73,3.06-7.16,8.37-9.25,4.59-1.8,9.69,.22,12.01,4.56,5.42,10.13,4.51,28.2,4.51,28.2Z" fill="#ab1212"></path>
      <path d="M329.86,620h-123.86l-.06-.43c-1.46-10.25,28.79-15.87,30.08-16.11,17.95-5.53,33.46-25.06,33.61-25.26l.62-.78,.26,.96s.15,.57,.47,1.49c3.32,9.7,12.09,16.44,22.36,17.16l8.05,.58c1.19,.08,2.26-.65,2.62-1.78,.84-2.63,3.08-7.37,8.66-9.56,4.75-1.87,10.18,.2,12.64,4.79,5.42,10.14,4.61,27.72,4.57,28.46l-.02,.48Zm-122.97-1h122.01c.09-2.91,.33-18.48-4.47-27.46-2.22-4.15-7.11-6.01-11.39-4.33-5.2,2.04-7.29,6.48-8.08,8.94-.5,1.58-2,2.6-3.65,2.48l-8.05-.58c-10.67-.75-19.79-7.75-23.23-17.83-.08-.24-.15-.46-.21-.65-3.05,3.65-17.27,19.86-33.56,24.87-.36,.07-29.73,5.52-29.37,14.57Z" fill="#231f20"></path>
    </g>
    <g>
      <path d="M167.8,385.21c2.78,0,6.7,.72,11.83,3.29,4.7,2.35,8.88,5.59,12.53,9.36,4.72,4.88,15.39,13.9,29.82,13.9,0,0,29.68,0,36.74,19.78,0,0,4.24,14.13-18.37,8.48l-25.68-4.94c-12.71-2.44-24.72-7.89-34.62-16.24-8.13-6.86-15.61-16.21-17.14-28.07-.38-2.97,1.89-5.58,4.89-5.58Z" fill="#231f20"></path>
      <path d="M249.58,441.86c-2.62,0-5.74-.45-9.34-1.35l-25.65-4.93c-13.1-2.52-25.15-8.17-34.85-16.34-10.16-8.57-15.99-18.12-17.32-28.39-.2-1.56,.27-3.14,1.31-4.31,1.02-1.16,2.51-1.83,4.07-1.83h0c3.58,0,7.63,1.13,12.05,3.34,4.52,2.26,8.78,5.44,12.67,9.46,4.96,5.14,15.39,13.75,29.46,13.75,.3,0,30.11,.23,37.21,20.12,.07,.22,1.38,4.75-1.56,7.83-1.69,1.77-4.38,2.65-8.06,2.65Zm-81.78-56.16c-1.27,0-2.48,.54-3.32,1.49-.84,.96-1.23,2.24-1.07,3.52,1.29,10.01,7,19.35,16.97,27.75,9.57,8.06,21.46,13.64,34.39,16.13l25.68,4.94c8.19,2.05,13.87,1.7,16.46-1.01,2.54-2.66,1.35-6.79,1.34-6.84-6.86-19.2-35.97-19.43-36.26-19.43-14.44,0-25.11-8.81-30.18-14.06-3.81-3.94-7.98-7.05-12.39-9.26-4.28-2.14-8.19-3.23-11.61-3.23h0Z" fill="#231f20"></path>
    </g>
    <g>
      <path d="M740.64,302.94s-9.89,18.38-33.92,19.79l-137.08,63.59s-11.31-2.82-19.79-12.72c0,0-27.11,50.35-65.29,23.96-3.82-2.65-8.34-4.11-12.99-4.3-16.93-.71-56.28-4.86-57.38-28.14l-.07-1.51-1.35-28.16s.72-9.34,11.38-12.14c4.29-1.13,10.19-1.2,18.3,.83l43.81,5.65s18.37-100.33,49.46-124.36l24.03-18.37s1.41-15.55,31.09-24.02c0,0,52.29-17.44,75.07-9.06,3.84,1.42,5.69,5.95,3.86,9.61-.95,1.9-2.62,4.09-5.44,6.51,0,0,21.19,5.65,38.15,22.61l21.32,19.3c9.63,8.7,18.17,18.56,25.2,29.46,13.5,20.95,25.2,50.87-8.36,61.47Z" fill="#ab1212"></path>
      <path d="M506.77,405.71c-7.51,0-15.05-2.59-22.5-7.74-3.7-2.57-8.1-4.02-12.73-4.21-17.02-.71-56.74-4.93-57.86-28.62l-1.42-29.67c0-.16,.87-9.79,11.75-12.65,4.93-1.3,11.17-1.02,18.55,.83l43.28,5.58c1.42-7.47,19.76-101.17,49.56-124.2l23.86-18.24c.29-2.03,3.33-16.21,31.42-24.23,2.12-.71,52.7-17.39,75.38-9.05,1.99,.73,3.58,2.3,4.37,4.3,.78,1.97,.69,4.15-.23,6-1,2-2.64,4.04-4.88,6.06,4.2,1.29,22.58,7.57,37.49,22.48l21.3,19.28c9.89,8.94,18.4,18.88,25.28,29.56,8.29,12.87,17.12,31.15,12.08,45.12-2.83,7.86-9.74,13.59-20.52,17.03-1.12,1.92-11.45,18.49-34.13,19.87l-137.15,63.62-.17-.04c-.11-.03-11.15-2.87-19.58-12.35-2.3,3.96-15.62,25.57-35.35,30.31-2.6,.62-5.2,.94-7.81,.94Zm-76.01-82.68c-2.38,0-4.54,.26-6.49,.77-10.2,2.68-11,11.6-11.01,11.69l1.42,29.61c1.08,22.86,40.15,26.96,56.9,27.66,4.82,.2,9.4,1.71,13.25,4.39,9.79,6.77,19.72,9.01,29.51,6.65,21.2-5.1,34.92-30.19,35.06-30.44l.35-.64,.47,.55c7.72,9.01,17.94,12.12,19.36,12.52l137-63.55h.09c23.46-1.38,33.41-19.35,33.51-19.53l.1-.18,.19-.06c10.58-3.34,17.33-8.88,20.07-16.48,4.9-13.6-3.81-31.56-11.98-44.24-6.84-10.6-15.29-20.48-25.11-29.36l-21.32-19.3c-16.68-16.68-37.73-22.44-37.94-22.5l-.92-.24,.72-.62c2.49-2.14,4.28-4.27,5.32-6.35,.8-1.6,.87-3.49,.2-5.19-.69-1.73-2.06-3.09-3.78-3.73-22.36-8.22-74.22,8.89-74.74,9.07-28.96,8.27-30.74,23.44-30.75,23.59l-.02,.22-.17,.13-24.03,18.37c-30.58,23.64-49.09,123.05-49.27,124.05l-.09,.47-44.28-5.71c-4.3-1.07-8.18-1.61-11.62-1.61Z" fill="#231f20"></path>
    </g>
    <g>
      <path d="M412.77,335.45l1.35,28.16c-.96-1.29-11.1-15.05-13.63-23.5-.34-1.13-.98-2.14-1.86-2.92-2.41-2.13-6.95-7.66-6.03-18.48,.18-2.07-.58-4.11-1.98-5.65l-7.8-8.59c-2.16-2.37-1.91-6.07,.56-8.12,1.05-.88,2.33-1.31,3.61-1.31,1.45,0,2.89,.56,3.99,1.65l11.9,11.91s18.49,9.51,21.26,14.65v.06c-10.65,2.8-11.37,12.14-11.37,12.14Z" fill="#fff"></path>
      <path d="M414.69,365.23l-.98-1.32c-1.14-1.54-11.19-15.24-13.71-23.65-.31-1.04-.9-1.97-1.71-2.69-2.71-2.4-7.12-8.05-6.19-18.9,.16-1.88-.51-3.8-1.85-5.27l-7.8-8.59c-1.14-1.25-1.7-2.87-1.58-4.56,.12-1.69,.9-3.21,2.2-4.28,1.1-.92,2.49-1.42,3.93-1.42,1.63,0,3.17,.64,4.34,1.79l11.85,11.86c1.43,.74,18.65,9.71,21.4,14.82l.05,.15,.08,.45-.43,.18c-9.98,2.62-10.95,11-11.01,11.67l1.43,29.77Zm-27.71-69.69c-1.2,0-2.37,.42-3.29,1.19-1.09,.9-1.74,2.18-1.84,3.59-.1,1.41,.37,2.77,1.33,3.81l7.8,8.59c1.53,1.68,2.3,3.88,2.11,6.03-.88,10.42,3.29,15.79,5.86,18.07,.95,.84,1.64,1.93,2.01,3.15,2.12,7.06,9.72,18.04,12.57,22l-1.27-26.52v-.03c0-.09,.84-9.36,11.13-12.41-3.51-5.05-20.57-13.87-20.75-13.96l-.12-.09-11.9-11.91c-.98-.97-2.27-1.5-3.64-1.5Z" fill="#231f20"></path>
    </g>
    <g>
      <path d="M576.73,427.09l107.34-4.81c8.12-.36,14.72-6.66,15.47-14.75l10.31-111.76s-10.6-12.82-16.05-21.2l-82.65,2.07c-19.51,.49-35.44,15.77-36.74,35.24l-6.95,105.51c-.35,5.32,3.94,9.81,9.27,9.69Z" fill="#fff"></path>
      <path d="M576.54,427.59c-2.61,0-5.13-1.07-6.94-2.96-1.85-1.94-2.82-4.59-2.64-7.26l6.95-105.51c1.32-19.86,17.33-35.21,37.23-35.71l82.93-2.07,.15,.23c5.37,8.26,15.91,21.02,16.02,21.15l.13,.16-.02,.21-10.31,111.76c-.77,8.3-7.62,14.83-15.94,15.21l-107.35,4.81c-.07,0-.14,0-.2,0Zm116.99-152.51l-82.37,2.06c-19.38,.48-34.96,15.44-36.25,34.78l-6.95,105.51c-.16,2.4,.7,4.77,2.37,6.51,1.66,1.74,4.01,2.69,6.39,2.65l107.33-4.81c7.83-.35,14.27-6.5,14.99-14.3l10.29-111.55c-1.23-1.49-10.69-13.05-15.8-20.85Z" fill="#231f20"></path>
    </g>
    <path d="M583.77,416.5s-.04,0-.06,0c-.27-.03-.47-.28-.44-.55l11.31-103.16c.18-.86,4.34-20.04,10.04-25.74,.2-.2,.51-.2,.71,0s.2,.51,0,.71c-5.48,5.48-9.71,24.99-9.76,25.19l-11.3,103.11c-.03,.26-.24,.45-.5,.45Z" fill="#231f20"></path>
    <g>
      <path d="M606.84,321.66l-24.48,153.7s-6.86,11.71-45.12,9.39l-125.57-9.69s-13.02,4.54-17.26,46.94l-1.41,89.03s1.41,22.61,35.33,21.2h154.42c4.54,0,9.07-.26,13.58-.78,8.75-1.02,22.98-3.23,35.5-7.7l14.94-5.34c4.68-1.67,5.78-7.97,1.77-10.91-.05-.03-.09-.07-.14-.1-.59-.42-1.36-.52-2.06-.34l-44.33,11.67c-5.53,1.46-11.23,2.19-16.95,2.19h-163.79s-16.96,0-16.96-22.61l1.41-76.31s0-35.33,14.13-35.33l89.03,1.41s67.83,4.24,83.38-5.65c0,0,39.08,3.66,69.56,.77,5.33-.51,9.95-3.86,12.13-8.75,2-4.47,4.2-11.32,5.93-21.7l18.76-134c.56-4-2.32-7.65-6.33-8.06h0c-3.79-.38-7.2,2.3-7.74,6.07l-17.41,121.86s4.24,38.16-12.72,39.57h-60.77l25.75-154.47c.6-3.6-1.95-6.97-5.58-7.38h0c-3.38-.38-6.46,1.97-6.99,5.33Z" fill="#fff"></path>
      <path d="M425.33,632.78c-31.12,0-32.84-21.51-32.85-21.73l1.41-89.07c4.23-42.27,17.05-47.21,17.6-47.4l.1-.03h.1s125.57,9.7,125.57,9.7c35.96,2.19,43.95-8.12,44.61-9.07l24.47-153.59c.58-3.63,3.89-6.15,7.54-5.75,1.89,.21,3.57,1.16,4.72,2.68,1.15,1.52,1.61,3.39,1.3,5.27l-25.65,153.89h60.18c2.7-.23,5.03-1.49,6.9-3.77,8.04-9.77,5.35-34.99,5.32-35.25v-.06s0-.06,0-.06l17.41-121.86c.58-4.05,4.22-6.9,8.29-6.49,2.08,.21,3.93,1.23,5.22,2.87,1.29,1.64,1.84,3.69,1.55,5.75l-18.76,134c-1.5,8.98-3.5,16.32-5.97,21.83-2.26,5.06-7.07,8.53-12.54,9.05-29.16,2.77-66.64-.5-69.48-.76-15.76,9.75-80.77,5.81-83.53,5.64l-89.01-1.41c-13.47,0-13.62,34.48-13.62,34.83l-1.41,76.32c0,21.81,15.79,22.1,16.46,22.1h163.79c5.67,0,11.33-.73,16.82-2.18l44.33-11.67c.87-.23,1.77-.08,2.47,.41l.15,.11c1.99,1.46,2.96,3.81,2.59,6.28-.37,2.54-2.09,4.65-4.49,5.5l-14.94,5.34c-12.29,4.39-26.15,6.62-35.61,7.73-4.47,.52-9.06,.78-13.63,.78h-154.42c-1.02,.04-2.02,.06-2.98,.06Zm-13.59-157.23c-1.11,.51-12.88,6.83-16.85,46.48l-1.41,88.99c.06,.86,1.82,22.06,34.81,20.69h154.44c4.54,0,9.09-.26,13.52-.78,9.41-1.09,23.19-3.31,35.39-7.67l14.94-5.34c2.05-.73,3.52-2.54,3.84-4.71,.31-2.1-.51-4.1-2.19-5.33l-.13-.1c-.46-.32-1.06-.41-1.64-.26l-44.33,11.67c-5.57,1.47-11.32,2.21-17.08,2.21h-163.79c-.17,0-17.46-.26-17.46-23.11l1.41-76.32c0-1.45,.17-35.82,14.63-35.82l89.04,1.41c.7,.04,67.87,4.12,83.1-5.57l.14-.09,.17,.02c.39,.04,39.38,3.63,69.46,.77,5.12-.49,9.61-3.73,11.72-8.46,2.43-5.43,4.41-12.69,5.89-21.58l18.76-133.99c.25-1.8-.23-3.57-1.35-5s-2.73-2.31-4.54-2.49c-3.53-.35-6.69,2.12-7.2,5.64l-17.4,121.8c.19,1.73,2.64,25.98-5.55,35.93-2.05,2.49-4.62,3.88-7.63,4.13h-61.4s25.84-155.05,25.84-155.05c.27-1.61-.13-3.21-1.11-4.5-.98-1.3-2.41-2.11-4.03-2.29-3.12-.35-5.95,1.81-6.44,4.91l-24.5,153.79-.05,.08c-.29,.49-7.46,11.95-45.58,9.63l-125.46-9.68Z" fill="#231f20"></path>
    </g>
    <path d="M637.89,215.25c-18.53,0-28.61-11.34-32.48-16.99-3.08-4.49-6.31-8.06-9.89-10.9-17.23-13.69-30.75-9.26-30.88-9.22-.26,.09-.55-.05-.64-.31s.05-.55,.31-.64c.14-.05,14.17-4.65,31.83,9.38,3.66,2.91,6.96,6.54,10.09,11.12,4.56,6.67,18.01,21.47,44.26,14.92,6.62-1.65,12.19-5.06,16.09-9.85,5.3-6.51,9.15-17.41-2.66-32.36-.17-.22-.13-.53,.08-.7,.22-.17,.53-.13,.7,.08,12.22,15.47,8.18,26.82,2.65,33.61-4.04,4.96-9.79,8.48-16.62,10.18-4.67,1.16-8.95,1.67-12.85,1.67Z" fill="#231f20"></path>
    <path d="M631.82,188.97c-.24,0-.45-.17-.49-.41-.05-.27,.13-.53,.4-.58,.15-.03,15.53-2.97,27.98-16.8,.19-.21,.5-.22,.71-.04s.22,.5,.04,.71c-12.69,14.1-28.39,17.09-28.55,17.12-.03,0-.06,0-.09,0Z" fill="#231f20"></path>
    <path d="M565.39,275.18c-.26,0-.48-.2-.5-.47-2.78-45.81-33.85-64.3-34.16-64.48-.24-.14-.32-.44-.18-.68,.14-.24,.44-.32,.68-.18,.32,.18,31.85,18.91,34.66,65.28,.02,.28-.19,.51-.47,.53-.01,0-.02,0-.03,0Z" fill="#231f20"></path>
    <path d="M549.85,374.1c-.1,0-.21-.03-.3-.1-.22-.17-.27-.48-.1-.7,12.45-16.6,11.22-34.81,11.21-34.99-1.41-16.88,2.82-26.99,2.87-27.09,5.58-12.55,9.83-26.66,9.87-26.8,.08-.26,.36-.41,.62-.34,.26,.08,.41,.36,.34,.62-.04,.14-4.31,14.31-9.91,26.91-.04,.09-4.17,9.99-2.79,26.61,.01,.19,1.28,18.76-11.4,35.67-.1,.13-.25,.2-.4,.2Z" fill="#231f20"></path>
    <path d="M473.54,368.45c-.11,0-.22-.04-.32-.11-.21-.18-.25-.49-.07-.7,12.46-15.23,12.61-37.62,12.61-37.84,0-.28,.22-.5,.5-.5s.5,.22,.5,.5c0,.23-.15,22.97-12.83,38.47-.1,.12-.24,.18-.39,.18Z" fill="#231f20"></path>
    <path d="M688.34,272.35c-.06,0-.12-.01-.19-.04-.26-.1-.38-.39-.28-.65,8.34-20.86,7.05-48.97,7.03-49.25-.01-.28,.2-.51,.47-.52,.26-.02,.51,.2,.52,.47,.01,.28,1.32,28.62-7.1,49.67-.08,.2-.27,.31-.46,.31Z" fill="#231f20"></path>
    <path d="M699.65,259.63c-.08,0-.16-.02-.23-.06-.24-.13-.34-.43-.21-.68,13.91-26.43,13.29-55.79,13.28-56.09,0-.28,.21-.51,.49-.51,.26,0,.51,.21,.51,.49,0,.3,.64,29.92-13.39,56.58-.09,.17-.26,.27-.44,.27Z" fill="#231f20"></path>
    <path d="M722.26,309.1c-.12,0-.24-.04-.34-.13-.2-.18-19.96-18.64-29.78-36.87-.13-.24-.04-.55,.2-.68,.24-.13,.55-.04,.68,.2,9.74,18.09,29.38,36.43,29.58,36.61,.2,.19,.21,.5,.03,.71-.1,.11-.23,.16-.37,.16Z" fill="#231f20"></path>
  </g>
  <path d="M563.74,118c-.21,0-.4-.13-.47-.34l-2-6c-.09-.26,.05-.55,.32-.63,.26-.09,.54,.05,.63,.32l2,6c.09,.26-.05,.55-.32,.63-.05,.02-.11,.03-.16,.03Z" fill="#231f20"></path>
  <path d="M544.49,125.83c-.69,0-1.31-.45-1.52-1.13l-2.44-8.13c-.23-.76,.15-1.59,.88-1.91l15.3-6.78c.25-.11,.55,0,.66,.25s0,.55-.25,.66l-15.3,6.78c-.27,.12-.41,.42-.33,.71l2.44,8.13c.09,.29,.39,.47,.68,.41l2.87-.58c.27-.06,.53,.12,.59,.39s-.12,.53-.39,.59l-2.87,.58c-.11,.02-.21,.03-.32,.03Z" fill="#231f20"></path>
</svg>
